<mxfile host="Electron" agent="Mozilla/5.0 (X11; Linux x86_64) AppleWebKit/537.36 (KHTML, like Gecko) draw.io/24.7.17 Chrome/128.0.6613.186 Electron/32.2.5 Safari/537.36" version="24.7.17">
  <diagram name="第 1 页" id="wGfwCwycNzYj7UNLBEbR">
    <mxGraphModel dx="1434" dy="838" grid="1" gridSize="10" guides="1" tooltips="1" connect="1" arrows="1" fold="1" page="1" pageScale="1" pageWidth="827" pageHeight="1169" math="0" shadow="0">
      <root>
        <mxCell id="0" />
        <mxCell id="1" parent="0" />
        <mxCell id="UjsrYpzJ6nKCzYrLB95w-3" value="" style="edgeStyle=orthogonalEdgeStyle;rounded=0;orthogonalLoop=1;jettySize=auto;html=1;" edge="1" parent="1" source="UjsrYpzJ6nKCzYrLB95w-1" target="UjsrYpzJ6nKCzYrLB95w-2">
          <mxGeometry relative="1" as="geometry" />
        </mxCell>
        <mxCell id="UjsrYpzJ6nKCzYrLB95w-1" value="开始" style="ellipse;whiteSpace=wrap;html=1;" vertex="1" parent="1">
          <mxGeometry x="354" y="70" width="120" height="80" as="geometry" />
        </mxCell>
        <mxCell id="UjsrYpzJ6nKCzYrLB95w-5" value="" style="edgeStyle=orthogonalEdgeStyle;rounded=0;orthogonalLoop=1;jettySize=auto;html=1;" edge="1" parent="1" source="UjsrYpzJ6nKCzYrLB95w-2" target="UjsrYpzJ6nKCzYrLB95w-4">
          <mxGeometry relative="1" as="geometry" />
        </mxCell>
        <mxCell id="UjsrYpzJ6nKCzYrLB95w-2" value="获取目标程序" style="whiteSpace=wrap;html=1;" vertex="1" parent="1">
          <mxGeometry x="354" y="240" width="120" height="60" as="geometry" />
        </mxCell>
        <mxCell id="UjsrYpzJ6nKCzYrLB95w-7" value="" style="edgeStyle=orthogonalEdgeStyle;rounded=0;orthogonalLoop=1;jettySize=auto;html=1;" edge="1" parent="1" source="UjsrYpzJ6nKCzYrLB95w-4" target="UjsrYpzJ6nKCzYrLB95w-6">
          <mxGeometry relative="1" as="geometry" />
        </mxCell>
        <mxCell id="UjsrYpzJ6nKCzYrLB95w-4" value="获得用于信息泄露的地址" style="whiteSpace=wrap;html=1;" vertex="1" parent="1">
          <mxGeometry x="354" y="380" width="120" height="60" as="geometry" />
        </mxCell>
        <mxCell id="UjsrYpzJ6nKCzYrLB95w-9" value="" style="edgeStyle=orthogonalEdgeStyle;rounded=0;orthogonalLoop=1;jettySize=auto;html=1;" edge="1" parent="1" source="UjsrYpzJ6nKCzYrLB95w-6" target="UjsrYpzJ6nKCzYrLB95w-8">
          <mxGeometry relative="1" as="geometry" />
        </mxCell>
        <mxCell id="UjsrYpzJ6nKCzYrLB95w-6" value="利用泄露的信息获取 gadgets 的地址" style="whiteSpace=wrap;html=1;" vertex="1" parent="1">
          <mxGeometry x="354" y="520" width="120" height="60" as="geometry" />
        </mxCell>
        <mxCell id="UjsrYpzJ6nKCzYrLB95w-13" style="edgeStyle=orthogonalEdgeStyle;rounded=0;orthogonalLoop=1;jettySize=auto;html=1;entryX=0.5;entryY=0;entryDx=0;entryDy=0;" edge="1" parent="1" source="UjsrYpzJ6nKCzYrLB95w-8" target="UjsrYpzJ6nKCzYrLB95w-12">
          <mxGeometry relative="1" as="geometry" />
        </mxCell>
        <mxCell id="UjsrYpzJ6nKCzYrLB95w-8" value="进行 ROP 攻击" style="whiteSpace=wrap;html=1;" vertex="1" parent="1">
          <mxGeometry x="354" y="660" width="120" height="60" as="geometry" />
        </mxCell>
        <mxCell id="UjsrYpzJ6nKCzYrLB95w-12" value="结束" style="ellipse;whiteSpace=wrap;html=1;" vertex="1" parent="1">
          <mxGeometry x="354" y="800" width="120" height="80" as="geometry" />
        </mxCell>
      </root>
    </mxGraphModel>
  </diagram>
</mxfile>
